<?xml version="1.0" encoding="UTF-8"?>
<!DOCTYPE svg PUBLIC "-//W3C//DTD SVG 1.1//EN" "http://www.w3.org/Graphics/SVG/1.1/DTD/svg11.dtd">
<!-- Creator: CorelDRAW -->
<svg xmlns="http://www.w3.org/2000/svg" xml:space="preserve" width="71.1348mm" height="71.1348mm" version="1.1" style="shape-rendering:geometricPrecision; text-rendering:geometricPrecision; image-rendering:optimizeQuality; fill-rule:evenodd; clip-rule:evenodd"
viewBox="0 0 4661.65 4661.65"
 xmlns:xlink="http://www.w3.org/1999/xlink"
 xmlns:xodm="http://www.corel.com/coreldraw/odm/2003">
 <defs>
  <style type="text/css">
   <![CDATA[
    .str0 {stroke:#2B2A29;stroke-width:4.99;stroke-miterlimit:22.9256}
    .str1 {stroke:black;stroke-width:4.99;stroke-miterlimit:22.9256}
    .fil0 {fill:#FEFEFE}
    .fil1 {fill:#2B2A29}
   ]]>
  </style>
 </defs>
 <g id="Слой_x0020_2">
  <metadata id="CorelCorpID_0Corel-Layer"/>
  <path class="fil0 str0" d="M2330.82 2.5c1285.89,0 2328.32,1042.43 2328.32,2328.32 0,1285.89 -1042.43,2328.32 -2328.32,2328.32 -1285.89,0 -2328.32,-1042.43 -2328.32,-2328.32 0,-1285.89 1042.43,-2328.32 2328.32,-2328.32z"/>
  <path class="fil1 str1" d="M2438.47 3289.88c565.01,412.95 355.5,496.72 585.17,638.82 100.57,62.22 187.59,144.66 285.15,194.85 -33.81,-117.55 -219.26,-447.68 -179.43,-526.15 69.12,-84.57 153.32,19.96 248.83,46.53 81.21,22.6 212.8,42.81 290.15,6.6 39.57,-18.52 122.19,-125.12 153.03,-171.51 130.5,-196.36 120.6,-252.44 -92.75,-301.48l-601.94 -147.99c-101.98,9.93 -28.18,79.11 -192.31,23.26 -77.13,-26.24 11.08,-30.25 -99.09,-27.8l-486.81 106.01c-3.62,107.98 6.11,97.53 90,158.84zm-500.18 -866.65c-0.52,5.73 137.58,276.98 155.45,310.47 188.13,352.47 184.09,327.62 569.56,253.11 181.58,-35.1 261.13,-4.64 237.01,-223.9 -86.75,-788.31 -33.53,-682.61 -665.37,-499.95 -99.66,28.81 -286.34,46.48 -296.65,160.28zm-1562.23 -358.74c-25.51,48.51 -12.71,-0.85 -17.81,78.67 0.73,3.56 99.09,302.18 101.96,307.16 52.23,90.54 135.42,97.05 254.99,140.78 101.72,37.2 128.61,129.82 287.87,133.56 135.86,3.19 188.94,-65.68 253.66,-147.13l-44.8 -686.6c-49.51,-38.85 -1.19,-42.64 -220.15,4.62l-443.94 89.46c-139.39,35.02 -62.76,49.86 -171.79,79.48zm2405.16 -120.97c113.26,-32.9 76.42,-36.45 170.36,-303.23 35.03,-99.47 109.83,-274.39 97.96,-381.75 -6.09,-55.12 -321.28,-539.76 -383.8,-572.07 -81.76,66.76 -119.92,211.64 -167.32,315.05 -27.16,59.27 -60.7,112.68 -85.67,170.49 -43.48,100.69 -24.23,256.51 41.62,345.34 37.12,50.07 74.43,103.88 107.41,148.36 49.51,66.76 170.04,246.04 219.44,277.8zm688.87 155.96c-29.62,33.71 -365.93,701.6 -373.03,743.47 -24.31,143.48 231.39,161.73 358.79,194.38 142.8,36.59 320.45,93.28 467.52,107.55 -36.13,-174.38 -363.61,-871.93 -453.28,-1045.39zm521.02 977.14c56.36,-114.54 74.17,-316.65 126.12,-409.22 50.39,-89.8 95.36,-61.76 131.59,-145.87 12.23,-28.4 54.44,-211.66 56.39,-244.1l-155.17 -144.34c-53.4,-32.15 -197.34,-46.55 -263.83,-59.35 -185.91,-35.77 -407.6,-127.21 -291.76,127.75 123.16,271.09 256.51,629.84 396.66,875.12zm-2615.02 -175.69c17.14,105.43 123.57,112.09 229.11,160.11 72.17,32.83 175.72,254.73 414.7,141.29 171.6,-81.46 120.65,-237.55 55.62,-357.6 -250.29,-462.08 -188.18,-511.93 -592.22,-225.44 -88.83,62.98 -52.39,11.7 -86.66,124.38 -14.9,48.99 -31.27,91.35 -20.56,157.26zm2.58 -1202.6c73.95,2.89 692.46,-263.25 759.26,-317.63 119.05,-96.9 -4.9,-236.87 -64.12,-335.7 -56.14,-93.69 -142.92,-285.01 -216.39,-330.45 -85.22,24.1 -117.76,137.23 -158.1,204.01 -72.13,119.42 -109.31,126.41 -102.45,258.93 10.49,202.72 -73.44,73.84 -134.49,220.24 -22.94,55.01 -72.18,238.39 -83.72,300.6zm2326.54 -571.69c-28.34,96.72 -130.89,572.91 -135.07,671.78 -5.66,134.2 65.99,158.39 199.32,181.73 99.49,17.42 264.63,61.74 355.4,68.8 347.39,27.01 -35.62,-414.3 -58.99,-478.6 -53.08,-146.01 -182.12,-422.09 -360.66,-443.71zm-3348.77 688.96c40.35,30.24 75.72,52.98 115.29,106.37 117,-4.98 247,-42 365.53,-66.17 420.98,-85.83 454.51,-27.45 165.57,-409.87 -234.35,-310.18 -51.34,-95.59 -323.25,-235.07 -142.55,154.24 -308.13,404.77 -323.15,604.74zm2733.98 -365.04c-92.2,365.56 -197,344.25 -133.38,585.63 89.63,-11.09 267.24,-40.22 349.43,-65.29 90.75,-27.67 173.95,-122.05 197,-193.52 31.16,-96.6 120.17,-586.1 112.8,-673.73 -45.09,14.43 -253.28,130.28 -283.53,155.17 -134.58,110.77 55.94,138.69 -242.33,191.75zm-1156.64 800.72c93.91,12.59 678.07,-154.92 778.99,-204.75 0.03,-79.48 -311.84,-546.55 -416.52,-570.21 -63.4,48.57 -332,666.45 -362.46,774.96zm-529.11 -366.4c14.75,20.61 342.09,356.37 429.67,330.21 91.55,-60.2 146.15,-260.12 195.69,-365.55 53.81,-114.53 141.99,-290.33 176,-409.66 -168.33,48.51 -462.17,204.19 -650.99,281.48 -140.45,57.5 -106.43,32.01 -150.36,163.52zm2169.03 -923.69c-46.62,-69.72 -133.37,-106.39 -207.73,-145.76 -135.51,-71.74 -128.97,-69.86 -226.57,-142.78 -113.77,-85 -520.18,-209.63 -319.58,87.4 259.04,383.56 283.02,565.62 565.91,389.85 102.6,-63.75 162.51,-56.11 187.96,-188.71zm-1577.7 -396.14c-89.2,138.02 -30.24,158.6 86.71,355.85 45.64,76.97 130.29,281.84 213.53,308.39 43.84,-42.68 138.07,-253.19 172.19,-326.89 69.55,-150.23 140.02,-204.38 58.76,-354.61 -127.94,-17.94 -143.24,-10.14 -262.61,16.08 -119.73,26.3 -148.54,-0.41 -268.58,1.17zm-1101.59 506.99c71.04,39.45 183.48,43.82 282,58.42 162.91,24.15 171.27,19.21 287.66,-34.75 107.24,-49.71 253.82,-314.33 289.46,-440.42 -303.84,-3.55 -442.16,104.16 -709.89,254.44 -75.62,42.45 -151.83,75.06 -149.23,162.3zm2497.71 966.91c-182.55,23.88 -328.84,26.97 -500.3,118.42l86.98 671.85c87.62,-33.34 166.47,-253.36 215.43,-346.63 91.53,-174.34 128.03,-267.58 197.89,-443.64zm-2082.28 -120.13c-29.14,122.71 9.31,531.95 18.66,682 90.58,2.15 396.23,-193.75 398.54,-277.2 2.33,-84.38 -376.27,-388.33 -417.2,-404.81zm-4.44 -244.21c22.13,-68.23 45.49,-147.61 71.38,-225.76 47.37,-142.91 46.36,-107.57 -19.74,-219.08l-440.47 -64.5c12.4,91.34 184.62,293.38 263.28,404.17 52.93,74.56 47.23,89.32 125.55,105.17z"/>
 </g>
</svg>
